REM DIRINDEX 1\3,1\2\4,1\2\5,1\2\6
REM DIRNAME folder01,folder02,folder03,folder04,folder05,folder06
TITLE ""
FILE "001.mp3" MP3
  TRACK 01 AUDIO
    TITLE "0:"
    INDEX 01 00:00:00
  TRACK 02 AUDIO
    TITLE "3:cjc137_0001"
    INDEX 01 00:00:64
  TRACK 03 AUDIO
    TITLE "0:"
    INDEX 01 00:04:44
  TRACK 04 AUDIO
    TITLE "3:cjc137_0002"
    INDEX 01 00:05:01
  TRACK 05 AUDIO
    TITLE "0:"
    INDEX 01 00:08:21
  TRACK 06 AUDIO
    TITLE "4:cjc137_0003"
    INDEX 01 00:09:26
  TRACK 07 AUDIO
    TITLE "0:"
    INDEX 01 00:10:35
  TRACK 08 AUDIO
    TITLE "6:cjc137_0004"
    INDEX 01 00:10:45
  TRACK 09 AUDIO
    TITLE "0:"
    INDEX 01 00:12:16
  TRACK 10 AUDIO
    TITLE "5:cjc137_0005"
    INDEX 01 00:12:26
  TRACK 11 AUDIO
    TITLE "0:"
    INDEX 01 00:13:37
  TRACK 12 AUDIO
    TITLE "4:cjc137_0006"
    INDEX 01 00:14:41
  TRACK 13 AUDIO
    TITLE "0:"
    INDEX 01 00:15:42
  TRACK 14 AUDIO
    TITLE "6:cjc137_0007"
    INDEX 01 00:15:54
  TRACK 15 AUDIO
    TITLE "0:"
    INDEX 01 00:17:21
  TRACK 16 AUDIO
    TITLE "5:cjc137_0008"
    INDEX 01 00:17:31
  TRACK 17 AUDIO
    TITLE "0:"
    INDEX 01 00:18:35
  TRACK 18 AUDIO
    TITLE "4:cjc137_0009"
    INDEX 01 00:19:40
  TRACK 19 AUDIO
    TITLE "0:"
    INDEX 01 00:20:65
  TRACK 20 AUDIO
    TITLE "6:cjc137_0010"
    INDEX 01 00:21:00
  TRACK 21 AUDIO
    TITLE "0:"
    INDEX 01 00:21:64
  TRACK 22 AUDIO
    TITLE "5:cjc137_0011"
    INDEX 01 00:21:72
  TRACK 23 AUDIO
    TITLE "0:"
    INDEX 01 00:23:24
  TRACK 24 AUDIO
    TITLE "4:cjc137_0012"
    INDEX 01 00:24:29
  TRACK 25 AUDIO
    TITLE "0:"
    INDEX 01 00:25:33
  TRACK 26 AUDIO
    TITLE "6:cjc137_0013"
    INDEX 01 00:25:45
  TRACK 27 AUDIO
    TITLE "0:"
    INDEX 01 00:26:48
  TRACK 28 AUDIO
    TITLE "5:cjc137_0014"
    INDEX 01 00:26:56
  TRACK 29 AUDIO
    TITLE "0:"
    INDEX 01 00:27:59
  TRACK 30 AUDIO
    TITLE "4:cjc137_0015"
    INDEX 01 00:28:64
  TRACK 31 AUDIO
    TITLE "0:"
    INDEX 01 00:29:68
  TRACK 32 AUDIO
    TITLE "6:cjc137_0016"
    INDEX 01 00:30:06
  TRACK 33 AUDIO
    TITLE "0:"
    INDEX 01 00:31:18
  TRACK 34 AUDIO
    TITLE "5:cjc137_0017"
    INDEX 01 00:31:31
  TRACK 35 AUDIO
    TITLE "0:"
    INDEX 01 00:32:39
  TRACK 36 AUDIO
    TITLE "4:cjc137_0018"
    INDEX 01 00:33:46
  TRACK 37 AUDIO
    TITLE "0:"
    INDEX 01 00:34:45
  TRACK 38 AUDIO
    TITLE "6:cjc137_0019"
    INDEX 01 00:34:53
  TRACK 39 AUDIO
    TITLE "0:"
    INDEX 01 00:35:57
  TRACK 40 AUDIO
    TITLE "5:cjc137_0020"
    INDEX 01 00:35:68
  TRACK 41 AUDIO
    TITLE "0:"
    INDEX 01 00:36:66
  TRACK 42 AUDIO
    TITLE "4:cjc137_0021"
    INDEX 01 00:37:71
  TRACK 43 AUDIO
    TITLE "0:"
    INDEX 01 00:39:03
  TRACK 44 AUDIO
    TITLE "6:cjc137_0022"
    INDEX 01 00:39:11
  TRACK 45 AUDIO
    TITLE "0:"
    INDEX 01 00:40:15
  TRACK 46 AUDIO
    TITLE "5:cjc137_0023"
    INDEX 01 00:40:28
  TRACK 47 AUDIO
    TITLE "0:"
    INDEX 01 00:41:36
  TRACK 48 AUDIO
    TITLE "4:cjc137_0024"
    INDEX 01 00:42:39
  TRACK 49 AUDIO
    TITLE "0:"
    INDEX 01 00:43:29
  TRACK 50 AUDIO
    TITLE "6:cjc137_0025"
    INDEX 01 00:43:40
  TRACK 51 AUDIO
    TITLE "0:"
    INDEX 01 00:44:56
  TRACK 52 AUDIO
    TITLE "5:cjc137_0026"
    INDEX 01 00:44:67
  TRACK 53 AUDIO
    TITLE "0:"
    INDEX 01 00:45:59
  TRACK 54 AUDIO
    TITLE "4:cjc137_0027"
    INDEX 01 00:46:64
  TRACK 55 AUDIO
    TITLE "0:"
    INDEX 01 00:47:56
  TRACK 56 AUDIO
    TITLE "6:cjc137_0028"
    INDEX 01 00:47:66
  TRACK 57 AUDIO
    TITLE "0:"
    INDEX 01 00:49:08
  TRACK 58 AUDIO
    TITLE "5:cjc137_0029"
    INDEX 01 00:49:18
  TRACK 59 AUDIO
    TITLE "0:"
    INDEX 01 00:50:09
  TRACK 60 AUDIO
    TITLE "4:cjc137_0030"
    INDEX 01 00:51:15
  TRACK 61 AUDIO
    TITLE "0:"
    INDEX 01 00:52:26
  TRACK 62 AUDIO
    TITLE "6:cjc137_0031"
    INDEX 01 00:52:37
  TRACK 63 AUDIO
    TITLE "0:"
    INDEX 01 00:53:51
  TRACK 64 AUDIO
    TITLE "5:cjc137_0032"
    INDEX 01 00:53:62
  TRACK 65 AUDIO
    TITLE "0:"
    INDEX 01 00:54:74
  TRACK 66 AUDIO
    TITLE "4:cjc137_0033"
    INDEX 01 00:56:06
  TRACK 67 AUDIO
    TITLE "0:"
    INDEX 01 00:57:11
  TRACK 68 AUDIO
    TITLE "6:cjc137_0034"
    INDEX 01 00:57:23
  TRACK 69 AUDIO
    TITLE "0:"
    INDEX 01 00:58:24
  TRACK 70 AUDIO
    TITLE "5:cjc137_0035"
    INDEX 01 00:58:34
  TRACK 71 AUDIO
    TITLE "0:"
    INDEX 01 00:59:41
  TRACK 72 AUDIO
    TITLE "4:cjc137_0036"
    INDEX 01 01:00:47
  TRACK 73 AUDIO
    TITLE "0:"
    INDEX 01 01:01:60
  TRACK 74 AUDIO
    TITLE "6:cjc137_0037"
    INDEX 01 01:01:70
  TRACK 75 AUDIO
    TITLE "0:"
    INDEX 01 01:03:06
  TRACK 76 AUDIO
    TITLE "5:cjc137_0038"
    INDEX 01 01:03:16
  TRACK 77 AUDIO
    TITLE "0:"
    INDEX 01 01:04:29
  TRACK 78 AUDIO
    TITLE "4:cjc137_0039"
    INDEX 01 01:05:34
  TRACK 79 AUDIO
    TITLE "0:"
    INDEX 01 01:06:63
  TRACK 80 AUDIO
    TITLE "6:cjc137_0040"
    INDEX 01 01:06:73
  TRACK 81 AUDIO
    TITLE "0:"
    INDEX 01 01:08:40
  TRACK 82 AUDIO
    TITLE "5:cjc137_0041"
    INDEX 01 01:08:52
  TRACK 83 AUDIO
    TITLE "0:"
    INDEX 01 01:10:06
  TRACK 84 AUDIO
    TITLE "4:cjc137_0042"
    INDEX 01 01:11:13
  TRACK 85 AUDIO
    TITLE "0:"
    INDEX 01 01:12:24
  TRACK 86 AUDIO
    TITLE "6:cjc137_0043"
    INDEX 01 01:12:32
  TRACK 87 AUDIO
    TITLE "0:"
    INDEX 01 01:13:51
  TRACK 88 AUDIO
    TITLE "5:cjc137_0044"
    INDEX 01 01:13:61
  TRACK 89 AUDIO
    TITLE "0:"
    INDEX 01 01:14:72
